<?xml version="1.0" standalone="yes"?>
<svg xmlns="http://www.w3.org/2000/svg" width="512" height="512">
<path style="fill:#ffffff; stroke:none;" d="M0 0L0 83L1 83C11.1155 34.6377 71.6666 46 108 46L413 46C447.933 46 501.378 36.9985 511 83L512 83L512 0L0 0z"/>
<path style="fill:#010101; stroke:none;" d="M38 46.4645C-2.67466 53.7851 0 93.1597 0 125L0 360C0 387.607 -8.25338 429.084 12.1736 450.961C25.8104 465.565 44.4511 466 63 466L129 466L361 466L434 466C447.756 466 462.464 467.374 476 464.482C515.985 455.939 512 415.353 512 384L512 150C512 122.848 520.214 81.4926 499.711 60.1698C485.512 45.4037 467.902 46 449 46L382 46L150 46L76 46C63.7562 46 50.0616 44.2936 38 46.4645z"/>
<path style="fill:#ffffff; stroke:none;" d="M42 70.5293C34.1554 72.3301 27.1971 78.1682 24.939 86C19.6207 104.446 24 129.82 24 149L24 357L24 408C24 416.863 22.9662 425.802 29.2137 432.985C37.8544 442.919 50.1227 441 62 441L136 441L367 441L438 441C448.542 441 461.83 443.15 472 440.211C479.368 438.081 485.739 431.491 487.471 424C491.886 404.898 488 380.619 488 361L488 151L488 102C488 92.4769 488.534 83.255 480.907 76.213C471.988 67.9784 459.14 70 448 70L372 70L148 70L77 70C65.9494 70 52.789 68.0527 42 70.5293z"/>
<path style="fill:#010101; stroke:none;" d="M176 139.439C165.686 141.05 155.697 144.527 147 150.359C85.5002 191.596 124.404 288.995 197 278.572C206.516 277.205 215.857 273.885 224 268.771C286.522 229.509 249.254 127.998 176 139.439z"/>
<path style="fill:#ffffff; stroke:none;" d="M182 163.428C165.773 165.727 151.234 174.551 144.349 190C130.444 221.2 156.067 259.25 191 254.711C212.136 251.964 229.666 235.624 231.829 214C234.564 186.67 210.476 159.395 182 163.428z"/>
<path style="fill:#010101; stroke:none;" d="M349 197L349 221L454 221L454 197L349 197M349 290L349 314L454 314L454 290L349 290M58 372L82 372C84.7427 353.702 105.269 342.822 121 337.053C159.964 322.765 206.592 321.568 246 335.079C262.605 340.772 288.23 351.883 290 372L315 372C302.77 306.162 212.911 296.63 158 303.285C145.909 304.751 133.596 306.891 122 310.67C93.7448 319.877 58.0945 337.736 58 372z"/>
<path style="fill:#ffffff; stroke:none;" d="M0 428L0 512L512 512L512 428L511 428C508.444 445.294 493.315 459.308 477 463.96C452.008 471.085 419.847 466 394 466L114 466C84.4264 466 40.0589 474.457 16.0039 453.699C7.47922 446.343 5.08184 437.349 0 428z"/>
</svg>
